:FULLY-SPECIFIED
:FORCE-ALL-JOINTS-BE-3DOF
:DEGREES
485
root 10.8652 17.2587 31.876 4.43823 4.25867 4.7168
lfemur 12.1466 2.40866 -29.4497
ltibia 0.860431 0 0
lfoot -14.8173 4.5285 0
ltoes 2.40874 0 0
rfemur -40.9339 10.2725 9.28382
rtibia 28.9474 0 0
rfoot -23.6668 -7.16274 0
rtoes -14.3386 0 0
lowerback -6.51353 -4.74362 -5.13523
upperback 0.853416 -5.98078 1.38056
thorax 5.21654 -3.12731 3.62427
lowerneck -22.8789 -2.37069 -9.59804
upperneck 24.5451 -2.82622 10.1152
head 12.1802 -0.837599 5.00419
lclavicle 3.81133e-14 -2.12037e-15 0
lhumerus -9.3664 -22.7204 84.1946
lradius 33.5274 0 0
lwrist 7.523 0 0
lhand -17.8788 -26.0968 0
lfingers 7.12502 0 0
lthumb 8.38725 3.71503 0
rclavicle 3.81133e-14 -2.12037e-15 0
rhumerus -48.3631 8.51668 -85.6049
rradius 37.614 0 0
rwrist -19.7158 0 0
rhand -31.1541 -23.222 0
rfingers 7.12502 0 0
rthumb -4.4319 -53.1545 0
486
root 10.8627 17.2506 31.9638 4.44527 4.26955 4.87935
lfemur 12.9694 2.37685 -29.5878
ltibia -0.0678631 0 0
lfoot -14.6457 4.61478 0
ltoes 2.03292 0 0
rfemur -41.2527 10.7969 8.79506
rtibia 28.6185 0 0
rfoot -24.0539 -7.16846 0
rtoes -15.3756 0 0
lowerback -6.51466 -4.76561 -5.26965
upperback 0.824143 -5.99606 1.33151
thorax 5.19687 -3.13718 3.64635
lowerneck -22.7489 -2.3722 -9.60847
upperneck 24.4931 -2.82996 10.1044
head 12.1344 -0.844082 4.9969
lclavicle 4.75434e-14 -6.62616e-15 0
lhumerus -9.57873 -22.8818 84.3226
lradius 33.7565 0 0
lwrist 7.45822 0 0
lhand -17.9864 -26.2236 0
lfingers 7.12502 0 0
lthumb 8.2834 3.59253 0
rclavicle 4.75434e-14 -6.62616e-15 0
rhumerus -48.4984 8.41725 -85.5631
rradius 37.4243 0 0
rwrist -19.6835 0 0
rhand -30.9828 -23.2735 0
rfingers 7.12502 0 0
rthumb -4.26655 -53.2099 0
487
root 10.8684 17.2584 31.9063 4.42251 4.23293 4.84871
lfemur 12.734 2.42356 -29.6038
ltibia 2.8625e-14 0 0
lfoot -14.5736 4.62157 0
ltoes 1.97923 0 0
rfemur -41.1324 10.5816 8.94555
rtibia 28.7835 0 0
rfoot -23.7293 -7.11235 0
rtoes -16.4619 0 0
lowerback -6.53922 -4.73521 -5.23995
upperback 0.866424 -5.95593 1.34709
thorax 5.24925 -3.11898 3.64664
lowerneck -22.7455 -2.37613 -9.59661
upperneck 24.4371 -2.81651 10.0396
head 12.1086 -0.844895 4.96853
lclavicle 4.93483e-14 -8.74653e-15 0
lhumerus -9.38194 -22.7914 84.2462
lradius 33.6506 0 0
lwrist 7.50649 0 0
lhand -18.175 -26.2233 0
lfingers 7.12502 0 0
lthumb 8.1014 3.60143 0
rclavicle 4.93483e-14 -8.74653e-15 0
rhumerus -48.3732 8.46943 -85.559
rradius 37.504 0 0
rwrist -19.7468 0 0
rhand -31.0738 -23.3489 0
rfingers 7.12502 0 0
rthumb -4.35441 -53.2841 0
488
root 10.8511 17.2326 32.0962 4.48954 4.33577 4.99884
lfemur 13.6485 2.27804 -29.6166
ltibia -0.467705 0 0
lfoot -14.7149 4.64057 0
ltoes 1.88019 0 0
rfemur -41.5501 11.3017 8.38514
rtibia 28.3267 0 0
rfoot -24.7005 -7.35713 0
rtoes -14.5224 0 0
lowerback -6.47493 -4.822 -5.38059
upperback 0.740432 -6.06326 1.28659
thorax 5.10111 -3.16907 3.65974
lowerneck -22.6868 -2.37506 -9.63962
upperneck 24.5406 -2.86189 10.203
head 12.1472 -0.850358 5.03773
lclavicle 4.89541e-14 -5.87888e-15 0
lhumerus -10.0465 -23.1056 84.5374
lradius 34.0026 0 0
lwrist 7.32781 0 0
lhand -17.7416 -26.2928 0
lfingers 7.12502 0 0
lthumb 8.51948 3.51193 0
rclavicle 4.89541e-14 -5.87888e-15 0
rhumerus -48.7418 8.27216 -85.5366
rradius 37.1712 0 0
rwrist -19.5535 0 0
rhand -30.7218 -23.2515 0
rfingers 7.12502 0 0
rthumb -4.01447 -53.1925 0
489
root 10.8251 17.1966 32.3388 4.59068 4.48845 5.13947
lfemur 14.555 2.06662 -29.5581
ltibia -0.598663 0 0
lfoot -15.0418 4.6226 0
ltoes 1.87991 0 0
rfemur -41.9891 12.0669 7.82607
rtibia 27.8927 0 0
rfoot -25.9408 -7.79319 0
rtoes -11.318 0 0
lowerback -6.37509 -4.94071 -5.52539
upperback 0.561912 -6.21554 1.22181
thorax 4.88317 -3.23875 3.67063
lowerneck -22.6592 -2.37864 -9.70485
upperneck 24.7124 -2.93511 10.4567
head 12.2244 -0.858603 5.14583
lclavicle 4.34519e-14 4.12295e-16 0
lhumerus -10.9853 -23.5024 84.9368
lradius 34.3977 0 0
lwrist 7.07324 0 0
lhand -17.0313 -26.3397 0
lfingers 7.12502 0 0
lthumb 9.20484 3.43259 0
rclavicle 4.34519e-14 4.12295e-16 0
rhumerus -49.2187 8.01337 -85.5153
rradius 36.7379 0 0
rwrist -19.2673 0 0
rhand -30.2491 -23.132 0
rfingers 7.12502 0 0
rthumb -3.55799 -53.0803 0
490
root 10.7973 17.1591 32.5826 4.69735 4.65843 5.25904
lfemur 15.3438 1.83623 -29.4664
ltibia -0.505122 0 0
lfoot -15.4461 4.58526 0
ltoes 1.97263 0 0
rfemur -42.3966 12.8006 7.30884
rtibia 27.5221 0 0
rfoot -27.2459 -8.2737 0
rtoes -7.50351 0 0
lowerback -6.2521 -5.06596 -5.65393
upperback 0.36422 -6.37967 1.15943
thorax 4.63201 -3.31273 3.67654
lowerneck -22.647 -2.38358 -9.77691
upperneck 24.9171 -3.01748 10.7395
head 12.3195 -0.867791 5.26693
lclavicle 3.56368e-14 8.24957e-15 0
lhumerus -11.9889 -23.9028 85.3521
lradius 34.7773 0 0
lwrist 6.80002 0 0
lhand -16.2036 -26.363 0
lfingers 7.12502 0 0
lthumb 10.0034 3.37171 0
rclavicle 3.56368e-14 8.24957e-15 0
rhumerus -49.7228 7.75355 -85.5065
rradius 36.3052 0 0
rwrist -18.9641 0 0
rhand -29.7474 -23.0278 0
rfingers 7.12502 0 0
rthumb -3.07353 -52.9838 0
491
root 10.7742 17.1289 32.7762 4.78097 4.81314 5.34602
lfemur 15.9052 1.63375 -29.3792
ltibia -0.299331 0 0
lfoot -15.8194 4.54615 0
ltoes 2.15259 0 0
rfemur -42.7194 13.426 6.87394
rtibia 27.2557 0 0
rfoot -28.4113 -8.65184 0
rtoes -3.73397 0 0
lowerback -6.11835 -5.17235 -5.7458
upperback 0.18071 -6.52258 1.10611
thorax 4.38422 -3.37573 3.67467
lowerneck -22.6345 -2.38659 -9.84041
upperneck 25.1194 -3.09033 10.9899
head 12.4115 -0.876081 5.37512
lclavicle 2.83038e-14 1.57555e-14 0
lhumerus -12.8477 -24.2279 85.6907
lradius 35.0822 0 0
lwrist 6.56539 0 0
lhand -15.4184 -26.3615 0
lfingers 7.12502 0 0
lthumb 10.7609 3.33755 0
rclavicle 2.83038e-14 1.57555e-14 0
rhumerus -50.1728 7.55318 -85.5218
rradius 35.9746 0 0
rwrist -18.7194 0 0
rhand -29.3085 -22.9766 0
rfingers 7.12502 0 0
rthumb -2.64963 -52.939 0
492
root 10.7626 17.1146 32.8682 4.81295 4.92005 5.38885
lfemur 16.1294 1.50611 -29.3346
ltibia -0.0935411 0 0
lfoot -16.0534 4.52288 0
ltoes 2.41403 0 0
rfemur -42.9045 13.8665 6.56188
rtibia 27.1343 0 0
rfoot -29.2325 -8.78077 0
rtoes -0.664323 0 0
lowerback -5.98624 -5.23452 -5.7806
upperback 0.0447389 -6.61119 1.06851
thorax 4.17639 -3.41246 3.66225
lowerneck -22.6062 -2.38439 -9.87993
upperneck 25.2837 -3.13496 11.1464
head 12.4797 -0.881631 5.44451
lclavicle 2.4248e-14 2.10528e-14 0
lhumerus -13.3524 -24.3986 85.8601
lradius 35.2536 0 0
lwrist 6.4266 0 0
lhand -14.8354 -26.3341 0
lfingers 7.12502 0 0
lthumb 11.3234 3.3384 0
rclavicle 2.4248e-14 2.10528e-14 0
rhumerus -50.4877 7.47273 -85.5728
rradius 35.8473 0 0
rwrist -18.6091 0 0
rhand -29.024 -23.0157 0
rfingers 7.12502 0 0
rthumb -2.37484 -52.9823 0
493
root 10.7692 17.1252 32.8072 4.76472 4.94658 5.37601
lfemur 15.9068 1.5002 -29.3704
ltibia 3.18055e-15 0 0
lfoot -16.0397 4.53304 0
ltoes 2.7512 0 0
rfemur -42.8989 14.0455 6.41316
rtibia 27.1984 0 0
rfoot -29.5052 -8.51367 0
rtoes 1.05049 0 0
lowerback -5.86816 -5.22708 -5.73792
upperback -0.0103376 -6.61241 1.05328
thorax 4.04511 -3.40765 3.63648
lowerneck -22.5464 -2.37369 -9.88009
upperneck 25.3748 -3.1327 11.1477
head 12.5032 -0.882602 5.4492
lclavicle 2.62644e-14 2.22639e-14 0
lhumerus -13.2933 -24.3359 85.7679
lradius 35.2327 0 0
lwrist 6.44089 0 0
lhand -14.6144 -26.2799 0
lfingers 7.12502 0 0
lthumb 11.5366 3.38255 0
rclavicle 2.62644e-14 2.22639e-14 0
rhumerus -50.5862 7.57269 -85.6711
rradius 36.0246 0 0
rwrist -18.709 0 0
rhand -28.9855 -23.1828 0
rfingers 7.12502 0 0
rthumb -2.3377 -53.1497 0
494
root 10.7452 17.0906 33.0086 4.90961 4.9335 5.39983
lfemur 16.504 1.44832 -29.2166
ltibia -5.88255e-15 0 0
lfoot -16.1958 4.4847 0
ltoes 1.9612 0 0
rfemur -42.9532 13.6641 6.77013
rtibia 27.0924 0 0
rfoot -29.1307 -9.27898 0
rtoes -1.86004 0 0
lowerback -6.10672 -5.27174 -5.83846
upperback 0.063132 -6.64886 1.08477
thorax 4.27698 -3.43543 3.69394
lowerneck -22.7014 -2.40335 -9.90354
upperneck 25.2156 -3.16132 11.221
head 12.4772 -0.883304 5.47164
lclavicle 1.88268e-14 2.18884e-14 0
lhumerus -13.7224 -24.5588 86.1138
lradius 35.3218 0 0
lwrist 6.36637 0 0
lhand -14.8384 -26.3873 0
lfingers 7.12502 0 0
lthumb 11.3205 3.28524 0
rclavicle 1.88268e-14 2.18884e-14 0
rhumerus -50.4709 7.26233 -85.4265
rradius 35.4851 0 0
rwrist -18.3739 0 0
rhand -28.9502 -22.8493 0
rfingers 7.12502 0 0
rthumb -2.30358 -52.817 0
495
root 10.7135 17.045 33.2666 5.11639 4.86273 5.39302
lfemur 17.2326 1.43002 -28.9779
ltibia -1.79053e-14 0 0
lfoot -16.3216 4.41524 0
ltoes 0.60405 0 0
rfemur -42.907 12.7721 7.55461
rtibia 27.0765 0 0
rfoot -28.1039 -10.3832 0
rtoes -7.7787 0 0
lowerback -6.53241 -5.30496 -5.95448
upperback 0.240504 -6.6574 1.15863
thorax 4.72766 -3.45741 3.78497
lowerneck -22.9606 -2.45154 -9.92253
upperneck 24.8899 -3.1832 11.2545
head 12.405 -0.881949 5.47162
lclavicle 9.36034e-15 1.88183e-14 0
lhumerus -14.1415 -24.7954 86.5702
lradius 35.3368 0 0
lwrist 6.34334 0 0
lhand -15.4244 -26.5499 0
lfingers 7.12502 0 0
lthumb 10.7552 3.14914 0
rclavicle 9.36034e-15 1.88183e-14 0
rhumerus -50.1287 6.82382 -85.02
rradius 34.7189 0 0
rwrist -17.9053 0 0
rhand -29.0417 -22.379 0
rfingers 7.12502 0 0
rthumb -2.39196 -52.3456 0
496
root 10.6815 16.9982 33.5261 5.33678 4.76048 5.37175
lfemur 17.9459 1.43948 -28.7226
ltibia -3.08116e-14 0 0
lfoot -16.4237 4.33978 0
ltoes -0.920364 0 0
rfemur -42.8021 11.6802 8.49762
rtibia 27.0917 0 0
rfoot -26.7795 -11.5809 0
rtoes -14.9433 0 0
lowerback -7.03103 -5.32776 -6.07224
upperback 0.467755 -6.6473 1.24943
thorax 5.27217 -3.47357 3.8877
lowerneck -23.2578 -2.50522 -9.93398
upperneck 24.4979 -3.19815 11.2586
head 12.3129 -0.879143 5.45699
lclavicle -8.18462e-16 1.45113e-14 0
lhumerus -14.4802 -25.0148 87.0267
lradius 35.3095 0 0
lwrist 6.34287 0 0
lhand -16.2037 -26.732 0
lfingers 7.12502 0 0
lthumb 10.0032 3.00235 0
rclavicle -8.18462e-16 1.45113e-14 0
rhumerus -49.6759 6.36502 -84.5654
rradius 33.9136 0 0
rwrist -17.4176 0 0
rhand -29.2108 -21.8367 0
rfingers 7.12502 0 0
rthumb -2.5553 -51.8012 0
497
root 10.6561 16.9599 33.732 5.5225 4.65296 5.35222
lfemur 18.4969 1.4709 -28.519
ltibia -4.25252e-14 0 0
lfoot -16.5092 4.27345 0
ltoes -2.21214 0 0
rfemur -42.6807 10.6989 9.33021
rtibia 27.0794 0 0
rfoot -25.5121 -12.6267 0
rtoes -21.5916 0 0
lowerback -7.48836 -5.34114 -6.17801
upperback 0.690862 -6.62783 1.3317
thorax 5.78555 -3.48393 3.98021
lowerneck -23.5267 -2.55134 -9.93485
upperneck 24.1397 -3.20601 11.2441
head 12.2269 -0.875493 5.43562
lclavicle -1.0393e-14 1.04252e-14 0
lhumerus -14.6682 -25.1859 87.3729
lradius 35.2718 0 0
lwrist 6.33604 0 0
lhand -17.008 -26.898 0
lfingers 7.12502 0 0
lthumb 9.22736 2.87297 0
rclavicle -1.0393e-14 1.04252e-14 0
rhumerus -49.2285 5.99379 -84.1763
rradius 33.2573 0 0
rwrist -17.0252 0 0
rhand -29.4083 -21.2874 0
rfingers 7.12502 0 0
rthumb -2.7461 -51.2493 0
